<?xml version="1.0" encoding="UTF-8" standalone="no"?>
<!-- Created with Inkscape (http://www.inkscape.org/) -->

<svg
   width="512"
   height="512"
   viewBox="0 0 512 512"
   version="1.1"
   id="svg1"
   xml:space="preserve"
   inkscape:export-filename="..\Pictures\niko-512.svg"
   inkscape:export-xdpi="96"
   inkscape:export-ydpi="96"
   inkscape:version="1.3.2 (091e20e, 2023-11-25, custom)"
   sodipodi:docname="drawing.svg"
   xmlns:inkscape="http://www.inkscape.org/namespaces/inkscape"
   xmlns:sodipodi="http://sodipodi.sourceforge.net/DTD/sodipodi-0.dtd"
   xmlns:xlink="http://www.w3.org/1999/xlink"
   xmlns="http://www.w3.org/2000/svg"
   xmlns:svg="http://www.w3.org/2000/svg"><sodipodi:namedview
     id="namedview1"
     pagecolor="#505050"
     bordercolor="#eeeeee"
     borderopacity="1"
     inkscape:showpageshadow="0"
     inkscape:pageopacity="0"
     inkscape:pagecheckerboard="0"
     inkscape:deskcolor="#505050"
     inkscape:document-units="px"
     inkscape:zoom="0.9312587"
     inkscape:cx="163.75686"
     inkscape:cy="73.55636"
     inkscape:window-width="2560"
     inkscape:window-height="1334"
     inkscape:window-x="-11"
     inkscape:window-y="-11"
     inkscape:window-maximized="1"
     inkscape:current-layer="g5" /><defs
     id="defs1"><linearGradient
       id="linearGradient1"
       inkscape:collect="always"><stop
         style="stop-color:#d30f41;stop-opacity:1;"
         offset="0"
         id="stop1" /><stop
         style="stop-color:#fe365e;stop-opacity:1;"
         offset="1"
         id="stop2" /></linearGradient><linearGradient
       inkscape:collect="always"
       xlink:href="#linearGradient1"
       id="linearGradient2"
       x1="0.090833887"
       y1="15.941348"
       x2="15.941348"
       y2="0.090833887"
       gradientUnits="userSpaceOnUse"
       gradientTransform="scale(32)" /></defs><path
     id="path1"
     style="fill:url(#linearGradient2);fill-opacity:1;stroke-width:8.31814;stroke-miterlimit:5.3"
     d="M 256,0 A 256,256 0 0 0 0,256 256,256 0 0 0 256,512 256,256 0 0 0 512,256 256,256 0 0 0 256,0 Z M 144.83984,193.11914 h 222.50781 c 8.00361,0 14.44726,6.44366 14.44726,14.44727 0,8.0036 -6.44365,14.44726 -14.44726,14.44726 H 144.83984 c -8.0036,0 -14.44726,-6.44366 -14.44726,-14.44726 0,-8.00361 6.44366,-14.44727 14.44726,-14.44727 z m 0.1152,96.52539 h 126.93558 c 8.00361,0 14.44727,6.44366 14.44727,14.44727 0,8.0036 -6.44366,14.44726 -14.44727,14.44726 H 144.95508 c -8.00361,0 -14.44727,-6.44366 -14.44727,-14.44726 0,-8.00361 6.44366,-14.44727 14.44727,-14.44727 z" /></svg>
